<svg width="1323.3875px" height="336.8px" xmlns="http://www.w3.org/2000/svg" viewBox="-411.69375 -93.4 1323.3875 336.8" style="background: rgba(89, 104, 134, 0);" preserveAspectRatio="xMidYMid"><defs><filter id="editing-hover" x="-100%" y="-100%" width="300%" height="300%"><feFlood flood-color="#384e5f" result="flood"></feFlood><feComposite operator="in" in2="SourceAlpha" in="flood" result="shadow"></feComposite><feOffset dx="-4" dy="-4" in="SourceGraphic" result="offset-1"></feOffset><feOffset dx="4" dy="4" in="shadow" result="offset-2"></feOffset><feMerge><feMergeNode in="offset-2"></feMergeNode><feMergeNode in="offset-1"></feMergeNode></feMerge></filter></defs><g filter="url(#editing-hover)"><g transform="translate(-225.69997251033783, 149)"><path d="M1.40-1L1.40-1L26.60-132L26.60-132Q50.20-134 65.40-134L65.40-134L65.40-134Q80.60-134 90.40-132.70L90.40-132.70L90.40-132.70Q100.20-131.40 106.80-128L106.80-128L106.80-128Q120-121.60 120-104L120-104L120-104Q120-93.80 111.20-85.20L111.20-85.20L111.20-85.20Q103-77.40 94-75.60L94-75.60L94-75.60Q103.60-74 110.40-66.80L110.40-66.80L110.40-66.80Q117.60-59.20 117.60-47.40L117.60-47.40L117.60-47.40Q117.60-24.60 100.60-11.30L100.60-11.30L100.60-11.30Q83.60 2 50.20 2L50.20 2L50.20 2Q27.20 2 1.40-1ZM55.80-64.40L45.80-12.60L45.80-12.60Q47.60-12.40 48-12.40L48-12.40L49.80-12.40L49.80-12.40Q66.20-12.40 73.20-23.20L73.20-23.20L73.20-23.20Q78.40-31.60 78.40-47L78.40-47L78.40-47Q78.40-55.20 73.10-59.60L73.10-59.60L73.10-59.60Q67.80-64 55.80-64.40L55.80-64.40ZM86.20-103.80L86.20-103.80L86.20-103.80Q86.20-120.40 70.20-120.40L70.20-120.40L68.40-120.40L68.40-120.40Q67.60-120.40 66.40-120.20L66.40-120.20L58.40-78L60.40-78L60.40-78Q86.20-78.60 86.20-103.80ZM195-8.40L195-8.40L195-8.40Q185.40 4 161.60 4L161.60 4L161.60 4Q149.20 4 140.20-3.50L140.20-3.50L140.20-3.50Q131.20-11 131.20-21.80L131.20-21.80L131.20-21.80Q131.20-27.80 131.80-30.80L131.80-30.80L145.20-102L185.80-106L171.20-28.80L171.20-28.80Q170.40-24.40 170.40-21.80L170.40-21.80L170.40-21.80Q170.40-10.20 177.40-10.20L177.40-10.20L177.40-10.20Q185.20-10.20 190.80-20.80L190.80-20.80L190.80-20.80Q192.60-24.20 193.40-28.60L193.40-28.60L207.60-102L247-106L232.20-28L232.20-28Q231.60-25 231.60-21.80L231.60-21.80L231.60-21.80Q231.60-18.60 233.40-15.10L233.40-15.10L233.40-15.10Q235.20-11.60 241-10.80L241-10.80L241-10.80Q239.80-6 235.60-2.80L235.60-2.80L235.60-2.80Q226.80 4 217.30 4L217.30 4L217.30 4Q207.80 4 202.20 0.60L202.20 0.60L202.20 0.60Q196.60-2.80 195-8.40ZM338-33.80L338-33.80L338-33.80Q343-30.40 343-22.90L343-22.90L343-22.90Q343-15.40 339.20-10.60L339.20-10.60L339.20-10.60Q335.40-5.80 329.20-2.60L329.20-2.60L329.20-2.60Q316.40 4 302.60 4L302.60 4L302.60 4Q288.80 4 280.70 1L280.70 1L280.70 1Q272.60-2 267.20-7.60L267.20-7.60L267.20-7.60Q256.60-18.20 256.60-37.60L256.60-37.60L256.60-37.60Q256.60-67.80 273-86.20L273-86.20L273-86.20Q290.60-106 321.20-106L321.20-106L321.20-106Q340.20-106 349.60-98L349.60-98L349.60-98Q356.60-92 356.60-82.20L356.60-82.20L356.60-82.20Q356.60-47 295.80-47L295.80-47L295.80-47Q295-41.80 295-37.40L295-37.40L295-37.40Q295-28.20 299.10-24.70L299.10-24.70L299.10-24.70Q303.20-21.20 310.80-21.20L310.80-21.20L310.80-21.20Q318.40-21.20 326.50-24.70L326.50-24.70L326.50-24.70Q334.60-28.20 338-33.80ZM297.20-55.60L297.20-55.60L297.20-55.60Q311.40-55.60 319.60-64.40L319.60-64.40L319.60-64.40Q327.80-72.80 327.80-86.20L327.80-86.20L327.80-86.20Q327.80-90.80 326.10-93.30L326.10-93.30L326.10-93.30Q324.40-95.80 321-95.80L321-95.80L321-95.80Q317.60-95.80 314.70-94.50L314.70-94.50L314.70-94.50Q311.80-93.20 308.80-88.80L308.80-88.80L308.80-88.80Q301.40-78.80 297.20-55.60ZM448 4L448 4L448 4Q423.80 4 423.80-14.80L423.80-14.80L423.80-14.80Q424-20 425.60-28.80L425.60-28.80L429.20-47.20L429.20-47.20Q434.60-73.20 434.60-79L434.60-79L434.60-79Q434.60-90.60 427.80-90.60L427.80-90.60L427.80-90.60Q416.40-90.60 410.40-60.80L410.40-60.80L398.60 0L358.40 4L379.20-102.20L412-106L408.80-86.40L408.80-86.40Q418.20-106 447-106L447-106L447-106Q461-106 466.90-100.10L466.90-100.10L466.90-100.10Q472.80-94.20 472.80-81L472.80-81L472.80-81Q472.80-68.60 466.40-39.60L466.40-39.60L466.40-39.60Q463.40-26.60 463.40-21.70L463.40-21.70L463.40-21.70Q463.40-16.80 466.10-14L466.10-14L466.10-14Q468.80-11.20 472.80-10.80L472.80-10.80L472.80-10.80Q470.80-4 463.90 0L463.90 0L463.90 0Q457 4 448 4ZM497.50-6L497.50-6L497.50-6Q492.80-11.20 490.70-19.40L490.70-19.40L490.70-19.40Q488.60-27.60 488.60-41L488.60-41L488.60-41Q488.60-54.40 493.20-66.60L493.20-66.60L493.20-66.60Q497.80-78.80 506.20-87.60L506.20-87.60L506.20-87.60Q523.40-106 551.80-106L551.80-106L551.80-106Q562-106 569.40-102.60L569.40-102.60L603.60-106L588.80-28L588.80-28Q588.20-25.60 588.20-21.20L588.20-21.20L588.20-21.20Q588.20-16.80 590.90-14L590.90-14L590.90-14Q593.60-11.20 597.60-10.80L597.60-10.80L597.60-10.80Q595.60-4 588.30 0L588.30 0L588.30 0Q581 4 572.80 4L572.80 4L572.80 4Q564.60 4 559.10 0.90L559.10 0.90L559.10 0.90Q553.60-2.20 552-7.40L552-7.40L552-7.40Q548.80-2.40 542 0.80L542 0.80L542 0.80Q535.20 4 526.10 4L526.10 4L526.10 4Q517 4 509.60 1.60L509.60 1.60L509.60 1.60Q502.20-0.80 497.50-6ZM539.70-87.20L539.70-87.20L539.70-87.20Q537.40-83.60 535.40-77.50L535.40-77.50L535.40-77.50Q533.40-71.40 530.10-55.10L530.10-55.10L530.10-55.10Q526.80-38.80 526.80-27.20L526.80-27.20L526.80-27.20Q526.80-15.60 528.60-12.20L528.60-12.20L528.60-12.20Q530.40-8.80 533.60-8.80L533.60-8.80L533.60-8.80Q540-8.80 544.70-14.90L544.70-14.90L544.70-14.90Q549.40-21 551.20-31.80L551.20-31.80L561.80-90.40L561.80-90.40Q557.60-94 552.70-94L552.70-94L552.70-94Q547.80-94 544.90-92.40L544.90-92.40L544.90-92.40Q542-90.80 539.70-87.20ZM677-56.20L677-56.20L677-56.20Q684.20-69 684.20-82L684.20-82L684.20-82Q684.20-90.60 678-90.60L678-90.60L678-90.60Q673.20-90.60 668.20-82.40L668.20-82.40L668.20-82.40Q663-74.20 661.40-63.60L661.40-63.60L651 0L609.60 4L630-102L663-106L659.40-85.80L659.40-85.80Q669.20-106 691.20-106L691.20-106L691.20-106Q702.80-106 709.10-100L709.10-100L709.10-100Q715.40-94 715.40-81.70L715.40-81.70L715.40-81.70Q715.40-69.40 707.30-61.60L707.30-61.60L707.30-61.60Q699.20-53.80 685.40-53.80L685.40-53.80L685.40-53.80Q679.40-53.80 677-56.20ZM781.60-106L781.60-106L781.60-106Q788.80-106 794.40-104.40L794.40-104.40L794.40-104.40Q794.60-105.20 795-107.40L795-107.40L796-113.60L796-113.60Q796.80-117.60 798-124.20L798-124.20L801.20-140L841-144L818.80-28L818.80-28Q818.60-26.80 818.60-24.80L818.60-24.80L818.60-21.60L818.60-21.60Q818.60-17.20 820.80-13.90L820.80-13.90L820.80-13.90Q823-10.60 826.60-10.60L826.60-10.60L826.60-10.60Q822.60-1.20 810.40 2.80L810.40 2.80L810.40 2.80Q806.20 4 800.30 4L800.30 4L800.30 4Q794.40 4 789 0.90L789 0.90L789 0.90Q783.60-2.20 782-7.40L782-7.40L782-7.40Q778.80-2.20 772.40 0.90L772.40 0.90L772.40 0.90Q766 4 756.70 4L756.70 4L756.70 4Q747.40 4 739.70 1.60L739.70 1.60L739.70 1.60Q732-0.80 727.20-6L727.20-6L727.20-6Q718.40-16.20 718.40-39.40L718.40-39.40L718.40-39.40Q718.40-69.40 736-87.60L736-87.60L736-87.60Q753.60-106 781.60-106ZM780.20-94L780.20-94L780.20-94Q772.80-94 768.80-86L768.80-86L768.80-86Q764.80-78 760.70-58.20L760.70-58.20L760.70-58.20Q756.60-38.40 756.60-20.60L756.60-20.60L756.60-20.60Q756.60-8.40 763.80-8.40L763.80-8.40L763.80-8.40Q770.20-8.40 774.70-14.80L774.70-14.80L774.70-14.80Q779.20-21.20 781-31.80L781-31.80L791.80-90.40L791.80-90.40Q787.60-94 780.20-94ZM887.20 4L887.20 4L887.20 4Q843.20 4 843.20-37.40L843.20-37.40L843.20-37.40Q843.20-66.80 859.40-85.80L859.40-85.80L859.40-85.80Q876.60-106 906.40-106L906.40-106L906.40-106Q928-106 939-96L939-96L939-96Q950-86 950-65L950-65L950-65Q950-33 932.80-14.40L932.80-14.40L932.80-14.40Q916 4 887.20 4ZM892.40-83L892.40-83L892.40-83Q890-77.60 888.10-69.50L888.10-69.50L888.10-69.50Q886.20-61.40 883.80-48.60L883.80-48.60L883.80-48.60Q881.40-35.80 881.40-20L881.40-20L881.40-20Q881.40-14.80 883.10-11.40L883.10-11.40L883.10-11.40Q884.80-8 889.40-8L889.40-8L889.40-8Q894-8 896.90-10.20L896.90-10.20L896.90-10.20Q899.80-12.40 902-17.60L902-17.60L902-17.60Q906-26.80 909.20-43.90L909.20-43.90L909.20-43.90Q912.40-61 912.70-68.40L912.70-68.40L912.70-68.40Q913-75.80 913-81.30L913-81.30L913-81.30Q913-86.80 911.40-90.40L911.40-90.40L911.40-90.40Q909.80-94 905.30-94L905.30-94L905.30-94Q900.80-94 897.80-91.20L897.80-91.20L897.80-91.20Q894.80-88.40 892.40-83Z" fill="#ffc800"></path></g></g><style>text {
  font-size: 64px;
  font-family: Arial Black;
  dominant-baseline: central;
  text-anchor: middle;
}</style></svg>